<svg width="25" height="20" viewBox="0 0 25 20" fill="none" xmlns="http://www.w3.org/2000/svg">
<path d="M17.825 14.007H16.267L13.116 11.155C14.4614 10.7436 15.6813 9.99961 16.663 8.99194V8.37C16.008 8.488 14.534 7.97803 15.147 7.67603C15.4321 7.51971 15.6468 7.26039 15.747 6.95105C15.6901 6.77211 15.6565 6.58658 15.647 6.39905L15.632 6.12805C15.5949 6.14221 15.5557 6.15024 15.516 6.15198C15.4648 6.15159 15.4142 6.14107 15.3671 6.12109C15.32 6.10112 15.2773 6.07215 15.2415 6.03564C15.2056 5.99914 15.1773 5.95591 15.1581 5.90845C15.139 5.86098 15.1295 5.8102 15.13 5.75903V4.974C15.1295 4.92283 15.139 4.87205 15.1581 4.82458C15.1773 4.77712 15.2056 4.73389 15.2415 4.69739C15.2773 4.66088 15.32 4.63179 15.3671 4.61182C15.4142 4.59184 15.4648 4.58145 15.516 4.58105C15.527 4.58105 15.537 4.58701 15.548 4.58801L15.52 4.07996C15.4809 3.75335 15.5115 3.42219 15.6097 3.10828C15.708 2.79436 15.8717 2.50482 16.09 2.25879C16.3084 2.01276 16.5763 1.8159 16.8763 1.68103C17.1764 1.54616 17.5016 1.47644 17.8305 1.47644C18.1594 1.47644 18.4847 1.54616 18.7847 1.68103C19.0847 1.8159 19.3527 2.01276 19.571 2.25879C19.7893 2.50482 19.953 2.79436 20.0513 3.10828C20.1495 3.42219 20.1801 3.75335 20.141 4.07996L20.113 4.58801C20.124 4.58801 20.134 4.58203 20.145 4.58203C20.1962 4.58242 20.2468 4.59282 20.2939 4.61279C20.341 4.63277 20.3837 4.66186 20.4196 4.69836C20.4554 4.73487 20.4837 4.7781 20.5028 4.82556C20.5219 4.87302 20.5315 4.92381 20.531 4.97498V5.76001C20.5315 5.81118 20.5219 5.86196 20.5028 5.90942C20.4837 5.95689 20.4554 6.00011 20.4196 6.03662C20.3837 6.07313 20.341 6.10222 20.2939 6.12219C20.2468 6.14217 20.1962 6.15256 20.145 6.15295C20.105 6.15131 20.0655 6.14328 20.028 6.12903L20.013 6.40002C19.9987 6.61219 19.9532 6.82109 19.878 7.02002C19.9824 7.30043 20.1849 7.53349 20.448 7.67603C21.048 7.96903 19.673 8.45698 18.993 8.37598V8.98999C20.0504 10.078 21.3814 10.8611 22.846 11.257C22.846 11.257 24.003 12.173 24.003 13.09V14.006L17.825 14.007ZM13.955 7.45898C13.8891 7.45658 13.8239 7.4438 13.762 7.42102L13.737 7.85303C13.7017 8.41564 13.5306 8.9613 13.2384 9.44336C12.9462 9.92542 12.5415 10.3295 12.059 10.621V11.988C13.813 13.7334 15.9992 14.9812 18.394 15.604C18.394 15.604 20.294 17.066 20.294 18.528V19.99H0V18.528C0 17.066 1.90002 15.604 1.90002 15.604C4.29513 14.9814 6.48175 13.7335 8.23602 11.988V10.624C7.75252 10.3327 7.34696 9.92837 7.05432 9.44568C6.76168 8.96299 6.59071 8.41643 6.55603 7.85303L6.53198 7.42102C6.4707 7.4436 6.40627 7.45639 6.341 7.45898C6.17382 7.45978 6.01316 7.39417 5.89429 7.27661C5.77542 7.15905 5.70803 6.99921 5.70697 6.83203V5.57898C5.70829 5.41197 5.77581 5.25235 5.89465 5.13501C6.01349 5.01767 6.174 4.9522 6.341 4.953C6.36 4.953 6.37598 4.96199 6.39398 4.96399L6.349 4.15295C6.30209 3.62555 6.3655 3.09422 6.53516 2.59265C6.70481 2.09108 6.97698 1.63026 7.33441 1.23962C7.69184 0.84899 8.1267 0.537031 8.61127 0.323608C9.09583 0.110186 9.6195 0 10.149 0C10.6785 0 11.2021 0.110186 11.6867 0.323608C12.1713 0.537031 12.6061 0.84899 12.9636 1.23962C13.321 1.63026 13.5932 2.09108 13.7629 2.59265C13.9325 3.09422 13.9959 3.62555 13.949 4.15295L13.903 4.96399C13.921 4.96399 13.937 4.95398 13.955 4.95398C14.0378 4.95345 14.1198 4.96919 14.1964 5.00037C14.273 5.03154 14.3428 5.07761 14.4017 5.13574C14.4605 5.19387 14.5073 5.263 14.5395 5.33923C14.5716 5.41547 14.5885 5.49722 14.589 5.57996V6.83301C14.5885 6.91574 14.5716 6.9975 14.5395 7.07373C14.5073 7.14997 14.4605 7.21921 14.4017 7.27734C14.3428 7.33547 14.273 7.38142 14.1964 7.4126C14.1198 7.44377 14.0378 7.45951 13.955 7.45898Z" fill="#2AACC8"/>
</svg>
