<svg width="24" height="23" viewBox="0 0 24 23" fill="none" xmlns="http://www.w3.org/2000/svg">
<path d="M16.668 16.679L9 23L10.726 17.3101C4.698 16.8491 0 13.1621 0 8.68005C0 3.88605 5.373 0 12 0C18.627 0 24 3.88605 24 8.68005C24 12.2761 20.977 15.361 16.668 16.679ZM12 1.81299C6.757 1.81299 2.506 4.88805 2.506 8.68005C2.506 12.4721 6.757 15.547 12 15.547C17.243 15.547 21.494 12.4721 21.494 8.68005C21.494 4.88805 17.243 1.81299 12 1.81299ZM7.5 8.16101H16.5V9.64502H7.5V8.16101ZM7.5 5.19299H16.5V6.677H7.5V5.19299ZM14.26 12.6121H9.75999V11.1281H14.26V12.6121Z" fill="#2AACC8"/>
</svg>
