<svg width="20" height="26" viewBox="0 0 20 26" fill="none" xmlns="http://www.w3.org/2000/svg">
<path d="M19.361 6.80801L15.861 12.87C15.5958 13.3294 15.159 13.6645 14.6466 13.8018C14.1343 13.9391 13.5884 13.8673 13.1291 13.6021L12.263 13.1021L13.263 11.37C13.4927 11.5026 13.7656 11.5385 14.0218 11.4699C14.278 11.4012 14.4964 11.2337 14.6291 11.0041L17.1291 6.67397C17.2617 6.4443 17.2975 6.17136 17.2289 5.91518C17.1603 5.65901 16.9927 5.44062 16.763 5.30801L13.299 3.30801C13.0694 3.1754 12.7964 3.13952 12.5402 3.20815C12.2841 3.27679 12.0656 3.4443 11.933 3.67397L9.43301 8.00405C9.3004 8.23373 9.26452 8.50667 9.33315 8.76284C9.40179 9.01901 9.56936 9.23741 9.79904 9.37002L8.79904 11.1021L7.93301 10.6021C7.47366 10.3369 7.13852 9.89994 7.00124 9.3876C6.86397 8.87525 6.93581 8.32938 7.20101 7.87002L10.701 1.80801C10.9662 1.34866 11.4031 1.01352 11.9154 0.876244C12.4278 0.738969 12.9736 0.810869 13.433 1.07607L18.633 4.07607C19.0917 4.34197 19.426 4.779 19.5625 5.29128C19.699 5.80357 19.6266 6.34913 19.361 6.80801ZM7.53103 17.298C7.30136 17.1654 7.13379 16.947 7.06515 16.6908C6.99651 16.4346 7.0324 16.1617 7.165 15.932L11.165 9.00405C11.2302 8.88941 11.3174 8.78871 11.4217 8.70791C11.5259 8.62711 11.645 8.56778 11.7723 8.53323C11.8996 8.49867 12.0325 8.48962 12.1632 8.50662C12.294 8.52361 12.4201 8.56628 12.5343 8.63223C12.6485 8.69817 12.7486 8.78613 12.8287 8.89089C12.9088 8.99565 12.9674 9.1152 13.0011 9.2427C13.0348 9.3702 13.043 9.50303 13.0251 9.63369C13.0072 9.76435 12.9637 9.89028 12.897 10.0041L8.897 16.932C8.8315 17.0459 8.74421 17.1458 8.6401 17.226C8.53599 17.3061 8.4171 17.3649 8.29025 17.3991C8.16339 17.4332 8.03106 17.4421 7.90078 17.4251C7.7705 17.4081 7.64487 17.3656 7.53103 17.3001V17.298ZM6.79904 14.5661C6.56936 14.4335 6.29642 14.3975 6.04025 14.4661C5.78407 14.5347 5.56562 14.7024 5.43301 14.932L2.93301 19.262C2.8004 19.4917 2.76452 19.7646 2.83315 20.0208C2.90179 20.2769 3.06936 20.4955 3.29903 20.6281L6.76302 22.6281C6.9927 22.7607 7.26564 22.7966 7.52181 22.7279C7.77799 22.6593 7.99644 22.4917 8.12905 22.262L10.6291 17.932C10.7617 17.7024 10.7975 17.4294 10.7289 17.1732C10.6603 16.9171 10.4927 16.6987 10.263 16.5661L11.263 14.834L12.1291 15.334C12.5884 15.5992 12.9235 16.0361 13.0608 16.5485C13.1981 17.0608 13.1263 17.6067 12.861 18.0661L9.36105 24.1281C9.09582 24.5874 8.65898 24.9226 8.14663 25.0598C7.63428 25.1971 7.08841 25.1252 6.62905 24.86L1.42904 21.86C0.969694 21.5948 0.634492 21.158 0.497216 20.6457C0.35994 20.1333 0.431841 19.5874 0.697045 19.1281L4.19705 13.0661C4.46227 12.6067 4.89906 12.2715 5.4114 12.1342C5.92375 11.9969 6.46968 12.0688 6.92904 12.334L7.79501 12.834L6.79904 14.5661Z" fill="white"/>
</svg>
