<svg width="35" height="25" viewBox="0 0 35 25" fill="none" xmlns="http://www.w3.org/2000/svg">
<path d="M10.16 22.3199C8.17084 21.2596 6.35089 19.9089 4.76001 18.312C2.98716 16.5706 1.44153 14.6121 0.159973 12.483C1.45014 10.3542 3.00266 8.39588 4.78101 6.65405C6.37335 5.05888 8.1931 3.70819 10.181 2.646C12.3779 1.47013 14.8273 0.844885 17.319 0.823975C19.7486 0.862332 22.133 1.48744 24.269 2.646C26.2886 3.72501 28.1523 5.07339 29.809 6.65405C31.6822 8.40714 33.3557 10.362 34.799 12.483C33.3466 14.6017 31.6663 16.5547 29.788 18.307C28.1292 19.8864 26.2647 21.2346 24.245 22.3149C22.1178 23.472 19.7422 24.0971 17.321 24.137C14.8222 24.1187 12.3651 23.4952 10.16 22.3199ZM12.18 12.5C12.18 13.5364 12.4873 14.5494 13.0631 15.4111C13.6389 16.2728 14.4572 16.9446 15.4147 17.3412C16.3722 17.7378 17.4258 17.8415 18.4423 17.6393C19.4587 17.4371 20.3924 16.938 21.1252 16.2052C21.8581 15.4724 22.3571 14.5387 22.5593 13.5222C22.7615 12.5058 22.6577 11.4522 22.2611 10.4948C21.8645 9.53727 21.1929 8.71884 20.3312 8.14307C19.4695 7.56729 18.4564 7.26001 17.42 7.26001C16.0307 7.2616 14.6988 7.81416 13.7165 8.79651C12.7341 9.77886 12.1816 11.1108 12.18 12.5ZM14.84 12.48C14.84 11.9638 14.9931 11.4591 15.2798 11.0299C15.5666 10.6007 15.9743 10.2663 16.4512 10.0687C16.9281 9.87118 17.4529 9.81946 17.9592 9.92017C18.4655 10.0209 18.9305 10.2694 19.2955 10.6344C19.6605 10.9994 19.9091 11.4645 20.0098 11.9708C20.1105 12.4771 20.0589 13.0018 19.8613 13.4788C19.6638 13.9557 19.3292 14.3634 18.9 14.6501C18.4708 14.9369 17.9662 15.09 17.45 15.09C16.7578 15.09 16.0939 14.815 15.6044 14.3256C15.115 13.8361 14.84 13.1722 14.84 12.48Z" fill="white"/>
</svg>
